# xmcd CD database file generated by Grip 3.3.1
# 
# Track frame offsets:
#       150
#       17000
#       29190
#       47105
#       69606
#       83765
#       96604
#       112237
#       135556
#       153851
#       168428
#       196353
# 
# Disc length: 2871 seconds
# 
# Revision: 3
# Processed by: cddbd v1.5.2PL0 Copyright (c) Steve Scherf et al.
# Submitted via: Grip 3.3.1
# 
DISCID=a90b350c
DTITLE=Various Artist - Best Of Blues [CD3)
DYEAR=2004
DGENRE=Blues
TTITLE0=Johnny Otis - Low Down Dirty Dog Blues
TTITLE1=Memphis Slim - I'll Just Keep On Singing The Blues
TTITLE2=Lightnin' Hopkins - Shake That Thing
TTITLE3=B.B. King - The Thrill Is Gone
TTITLE4=Buddy Guy - Broken Hearted Blues
TTITLE5=Charles Brown - Big Legged Woman
TTITLE6=Canned Heat - Chicken Shack Boogie
TTITLE7=Pee Wee Crayton - Blues After Hours
TTITLE8=James Cotton Band - Got My Mojo Working
TTITLE9=Sam And Dave - When Something Is Wrong With My Baby
TTITLE10=Johnny Otis - Barrelhouse Blues
TTITLE11=John Mayall - John Lee Boogie
EXTD=YEAR: 2003
EXTT0=
EXTT1=
EXTT2=
EXTT3=
EXTT4=
EXTT5=
EXTT6=
EXTT7=
EXTT8=
EXTT9=
EXTT10=
EXTT11=
PLAYORDER=
